# xmcd
#
# Track frame offsets:
#	150
#	20005
#	41987
#	61345
#	78111
#	99830
#	122366
#	144866
#	166950
#	188696
#	213648
#
# Disc length: 3135 seconds
# Revision: 0
# Processed by: cddbd v1.5.2PL0 Copyright (c) Steve Scherf et al.
# Submitted via: dBpowerAMP V12.0
#
DISCID=890c3d0b
DTITLE=Various Artist - Hello Cruel World
DYEAR=2012
DGENRE=Country
TTITLE0=Gretchen Peters - Hello Cruel World
TTITLE1=Gretchen Peters - Saint Francis
TTITLE2=Gretchen Peters - The Matador
TTITLE3=Gretchen Peters with Rodney Crowell - Dark Angel
TTITLE4=Gretchen Peters - Paradise Found
TTITLE5=Gretchen Peters - Woman on the Wheel
TTITLE6=Gretchen Peters - Five Minutes
TTITLE7=Gretchen Peters - Camille
TTITLE8=Gretchen Peters - Natural Disaster
TTITLE9=Gretchen Peters - Idlewild
TTITLE10=Gretchen Peters - Little World
EXTD=
EXTT0=
EXTT1=
EXTT2=
EXTT3=
EXTT4=
EXTT5=
EXTT6=
EXTT7=
EXTT8=
EXTT9=
EXTT10=
PLAYORDER=
